<?xml version="1.0" encoding="utf-8"?>
<!-- Generator: Adobe Illustrator 19.2.0, SVG Export Plug-In . SVG Version: 6.00 Build 0)  -->
<!DOCTYPE svg PUBLIC "-//W3C//DTD SVG 1.1//EN" "http://www.w3.org/Graphics/SVG/1.1/DTD/svg11.dtd">
<svg version="1.1" id="Layer_1" xmlns="http://www.w3.org/2000/svg" xmlns:xlink="http://www.w3.org/1999/xlink" x="0px" y="0px"
	 viewBox="0 0 29 29" enable-background="new 0 0 29 29" xml:space="preserve">
<g>
	<path fill="#6D6D6D" d="M24.1248,12.0633c0-1.6272-0.3193-3.2036-0.9481-4.6853c-0.6324-1.4904-1.497-2.7897-2.5668-3.8618
		c-1.0697-1.0721-2.3665-1.9367-3.8539-2.571c-2.9591-1.2601-6.3905-1.2601-9.3497,0C5.9197,1.5794,4.6228,2.444,3.5525,3.5161
		C2.4828,4.5882,1.6188,5.8876,0.9857,7.3786c-0.6288,1.4817-0.9481,3.058-0.9481,4.6847s0.3193,3.2036,0.9481,4.6866
		c0.6343,1.4909,1.4977,2.7891,2.5674,3.8612c1.0703,1.0721,2.3672,1.9367,3.8544,2.5717c1.4787,0.6301,3.0513,0.9494,4.6742,0.9494
		c2.5312,0,4.7626-0.6939,6.8222-2.1222l0.8633-0.5994L26.99,28.627c0.4691,0.4961,1.1238,0.4986,1.6223,0
		c0.2421-0.242,0.3501-0.4937,0.3501-0.8143c0-0.334-0.102-0.5858-0.3316-0.8154l-7.2214-7.2348l0.5969-0.8621
		C23.4321,16.8394,24.1248,14.603,24.1248,12.0633z M18.9519,18.9419c-1.8938,1.8975-4.2057,2.859-6.8701,2.859
		c-2.665,0-4.9763-0.9616-6.8701-2.8579c-1.8926-1.8962-2.8517-4.2106-2.8517-6.8799c0-2.6687,0.9592-4.9831,2.8517-6.8787
		c1.8932-1.8967,4.2052-2.859,6.8701-2.859s4.9763,0.9622,6.8701,2.859c1.8926,1.8968,2.8517,4.2112,2.8517,6.8787
		C21.8036,14.7314,20.8445,17.0457,18.9519,18.9419z"/>
</g>
</svg>
