<?xml version="1.0" encoding="utf-8"?>
<!-- Generator: Adobe Illustrator 19.1.0, SVG Export Plug-In . SVG Version: 6.00 Build 0)  -->
<!DOCTYPE svg PUBLIC "-//W3C//DTD SVG 1.1//EN" "http://www.w3.org/Graphics/SVG/1.1/DTD/svg11.dtd">
<svg version="1.1" id="Layer_1" xmlns="http://www.w3.org/2000/svg" xmlns:xlink="http://www.w3.org/1999/xlink" x="0px" y="0px"
	 viewBox="0 0 39.3574 33.362" enable-background="new 0 0 39.3574 33.362" xml:space="preserve">
<g>
	<g>
		<path fill="#6D6D6D" d="M0,4.7407l0,1.7891h5.3672l8.9448,19.6787h17.8897v-1.7891H15.2063L6.2615,4.7407L0,4.7407z
			 M25.9437,30.6857c0,1.4779,1.1984,2.6763,2.6781,2.6763s2.6781-1.198,2.6781-2.6763c0-1.4796-1.198-2.6781-2.6781-2.6781
			C27.1421,28.0077,25.9433,29.2061,25.9437,30.6857z M12.5229,9.2131h1.9586c-0.1064-0.58-0.1695-1.1773-0.1695-1.7891H9.8396
			l7.1558,15.2067h15.2063l7.1558-15.2067h-5.3672c0,0.6118-0.0627,1.2095-0.1695,1.7891h2.8529l-5.3667,11.6286H17.8896
			 M15.2098,30.6857c0,1.4779,1.1984,2.6763,2.6781,2.6763s2.6781-1.198,2.6781-2.6763c0-1.4796-1.198-2.6781-2.6781-2.6781
			C16.4083,28.0077,15.2098,29.2061,15.2098,30.6857z"/>
	</g>
</g>
<circle fill="#F48120" cx="24.2905" cy="8.8056" r="8.8056"/>
</svg>
