<?xml version="1.0" encoding="utf-8"?>
<!-- Generator: Adobe Illustrator 19.1.0, SVG Export Plug-In . SVG Version: 6.00 Build 0)  -->
<!DOCTYPE svg PUBLIC "-//W3C//DTD SVG 1.1//EN" "http://www.w3.org/Graphics/SVG/1.1/DTD/svg11.dtd">
<svg version="1.1" id="Layer_1" xmlns="http://www.w3.org/2000/svg" xmlns:xlink="http://www.w3.org/1999/xlink" x="0px" y="0px"
	 viewBox="0 0 18.5002 19.9584" enable-background="new 0 0 18.5002 19.9584" xml:space="preserve">
<g>
	<path fill="#6D6D6D" d="M14.2992,13.1636c-0.2851,0.426-0.6039,0.8543-0.9245,1.2452c2.0995,0.426,3.5928,2.027,3.7005,4.1265
		H1.4212v-0.1077c0-2.1346,1.4933-3.7356,3.6654-4.0914c-0.3207-0.3909-0.6413-0.8188-0.925-1.2452
		C1.7068,13.7675,0,15.83,0,18.4276v1.5308h18.5002v-1.2101C18.4983,16.08,16.7897,13.9103,14.2992,13.1636z"/>
	<path fill="#6D6D6D" d="M9.2482,1.4231c2.6332,0,4.7678,2.1346,4.7678,4.7678c0,2.8813-2.3476,7.827-4.7678,7.827
		s-4.7678-4.9457-4.7678-7.827C4.4804,3.5577,6.615,1.4231,9.2482,1.4231z M9.2482,15.441c3.6279,0,6.1909-6.013,6.1909-9.2501
		C15.4391,2.7755,12.6632,0,9.2482,0S3.0573,2.7755,3.0573,6.1909C3.0573,9.428,5.6203,15.441,9.2482,15.441z"/>
</g>
</svg>
