<?xml version="1.0" encoding="utf-8"?>
<!-- Generator: Adobe Illustrator 19.1.0, SVG Export Plug-In . SVG Version: 6.00 Build 0)  -->
<!DOCTYPE svg PUBLIC "-//W3C//DTD SVG 1.1//EN" "http://www.w3.org/Graphics/SVG/1.1/DTD/svg11.dtd">
<svg version="1.1" id="Layer_1" xmlns="http://www.w3.org/2000/svg" xmlns:xlink="http://www.w3.org/1999/xlink" x="0px" y="0px"
	 viewBox="0 0 13.5407 20.3111" enable-background="new 0 0 13.5407 20.3111" xml:space="preserve">
<g>
	<path fill="#6D6D6D" d="M6.7704,9.6719c-1.5955,0-2.9016-1.306-2.9016-2.9016s1.306-2.9016,2.9016-2.9016
		s2.9016,1.306,2.9016,2.9016S8.3659,9.6719,6.7704,9.6719z M6.7704,2.9016c-2.1285,0-3.8688,1.7403-3.8688,3.8688
		s1.7403,3.8688,3.8688,3.8688s3.8688-1.7403,3.8688-3.8688S8.8988,2.9016,6.7704,2.9016z M6.7704,19.1753
		c-1.2567-1.209-5.8032-6.045-5.8032-12.4768c0-3.1685,2.6121-5.7313,5.8032-5.7313s5.8032,2.5627,5.8032,5.73
		C12.5735,13.1303,8.0271,17.9663,6.7704,19.1753z M6.7704,0C3.0463,0,0,2.9986,0,6.6972c0,7.8585,6.1897,13.2751,6.4554,13.493
		c0.097,0.0732,0.1941,0.1209,0.315,0.1209c0.1209,0,0.2179-0.0477,0.315-0.1209c0.2657-0.2179,6.4554-5.6346,6.4554-13.493
		C13.5407,2.9986,10.4944,0,6.7704,0z"/>
</g>
</svg>
